<?xml version="1.0" encoding="UTF-8" standalone="no" ?>
<!DOCTYPE svg PUBLIC "-//W3C//DTD SVG 1.1//EN" "http://www.w3.org/Graphics/SVG/1.1/DTD/svg11.dtd">
<svg xmlns="http://www.w3.org/2000/svg" xmlns:xlink="http://www.w3.org/1999/xlink" version="1.1" width="515" height="515" viewBox="0 0 515 515" xml:space="preserve">
<desc>Created with Fabric.js 3.6.6</desc>
<defs>
</defs>
<g transform="matrix(1 0 0 1 257.54 257.54)"  >
<path style="stroke: none; stroke-width: 1; stroke-dasharray: none; stroke-linecap: butt; stroke-dashoffset: 0; stroke-linejoin: miter; stroke-miterlimit: 4; fill: rgb(217,217,217); fill-rule: nonzero; opacity: 1;"  transform=" translate(-256, -256)" d="M 361.5 1.2 c 5 2.1 8.6 6.6 9.6 11.9 L 391 121 l 107.9 19.8 c 5.3 1 9.8 4.6 11.9 9.6 s 1.5 10.7 -1.6 15.2 L 446.9 256 l 62.3 90.3 c 3.1 4.5 3.7 10.2 1.6 15.2 s -6.6 8.6 -11.9 9.6 L 391 391 L 371.1 498.9 c -1 5.3 -4.6 9.8 -9.6 11.9 s -10.7 1.5 -15.2 -1.6 L 256 446.9 l -90.3 62.3 c -4.5 3.1 -10.2 3.7 -15.2 1.6 s -8.6 -6.6 -9.6 -11.9 L 121 391 L 13.1 371.1 c -5.3 -1 -9.8 -4.6 -11.9 -9.6 s -1.5 -10.7 1.6 -15.2 L 65.1 256 L 2.8 165.7 c -3.1 -4.5 -3.7 -10.2 -1.6 -15.2 s 6.6 -8.6 11.9 -9.6 L 121 121 L 140.9 13.1 c 1 -5.3 4.6 -9.8 9.6 -11.9 s 10.7 -1.5 15.2 1.6 L 256 65.1 L 346.3 2.8 c 4.5 -3.1 10.2 -3.7 15.2 -1.6 z M 352 256 c 0 53 -43 96 -96 96 s -96 -43 -96 -96 s 43 -96 96 -96 s 96 43 96 96 z m 32 0 c 0 -70.7 -57.3 -128 -128 -128 s -128 57.3 -128 128 s 57.3 128 128 128 s 128 -57.3 128 -128 z" stroke-linecap="round" />
</g>
</svg>